<!--?xml version="1.0" standalone="no"?-->
              <svg id="sw-js-blob-svg" viewBox="0 0 100 100" xmlns="http://www.w3.org/2000/svg" version="1.1">
                    <defs> 
                        <linearGradient id="sw-gradient" x1="0" x2="1" y1="1" y2="0">
                            <stop id="stop1" stop-color="rgba(32, 22, 16, 1)" offset="0%"></stop>
                            <stop id="stop2" stop-color="rgba(32, 22, 16, 1)" offset="100%"></stop>
                        </linearGradient>
                    </defs>
                <path fill="none" d="M23.3,-32C29.4,-27.6,33.2,-19.8,35,-11.9C36.8,-4.1,36.7,3.9,35.1,12.2C33.5,20.5,30.5,29.2,24.4,33.6C18.4,38,9.2,38.1,0.5,37.4C-8.2,36.8,-16.4,35.3,-22.6,31C-28.8,26.6,-33,19.3,-36.1,11.4C-39.2,3.4,-41.3,-5.4,-39.8,-13.9C-38.4,-22.5,-33.5,-30.9,-26.3,-35C-19,-39.2,-9.5,-39,-0.5,-38.4C8.6,-37.7,17.1,-36.5,23.3,-32Z" width="100%" height="100%" transform="translate(50 50)" style="transition: all 0.3s ease 0s;" stroke-width="1" stroke="url(#sw-gradient)"></path>
              </svg>